<svg width="442" height="331" viewBox="0 0 442 331" fill="none" xmlns="http://www.w3.org/2000/svg">
<path d="M212.116 126.78C212.589 125.45 212.848 124.019 212.848 122.526C212.848 115.653 207.39 110.058 200.573 109.83C199.027 103.531 193.346 98.8569 186.571 98.8569C186.194 98.8569 185.821 98.8759 185.452 98.9049C184.211 97.8869 182.744 97.1339 181.139 96.7309C180.345 92.7569 177.545 89.5099 173.839 88.0849C173.995 86.9859 174.081 85.8639 174.081 84.7219C174.081 71.6219 163.462 61.0029 150.362 61.0029C137.674 61.0029 127.313 70.9649 126.675 83.4949C118.049 84.5099 111.356 91.8409 111.356 100.74C111.356 101.127 111.373 101.511 111.398 101.892C106.688 102.496 103.046 106.51 103.046 111.384C103.046 115.091 105.156 118.3 108.237 119.892C108.108 120.52 108.039 121.17 108.039 121.836C108.039 123.596 108.522 125.24 109.35 126.657H109.148C105.506 126.657 102.527 129.636 102.527 133.278C102.527 136.919 105.506 139.899 109.148 139.899H210.859C214.501 139.899 217.48 136.92 217.48 133.278C217.479 130.066 215.161 127.373 212.116 126.78Z" fill="#DFF1FD"/>
<path d="M257.99 108.051C257.63 107.037 257.432 105.947 257.432 104.809C257.432 99.5709 261.591 95.3079 266.787 95.1339C267.965 90.3339 272.294 86.7709 277.458 86.7709C277.745 86.7709 278.029 86.7859 278.311 86.8069C279.257 86.0309 280.374 85.4569 281.598 85.1499C282.203 82.1219 284.337 79.6469 287.161 78.5609C287.042 77.7229 286.977 76.8689 286.977 75.9979C286.977 66.0149 295.07 57.9219 305.053 57.9219C314.722 57.9219 322.618 65.5139 323.105 75.0619C329.679 75.8359 334.779 81.4229 334.779 88.2039C334.779 88.4989 334.766 88.7919 334.747 89.0819C338.336 89.5419 341.112 92.6009 341.112 96.3149C341.112 99.1399 339.504 101.586 337.156 102.799C337.255 103.277 337.307 103.773 337.307 104.28C337.307 105.621 336.939 106.874 336.308 107.954H336.462C339.237 107.954 341.508 110.225 341.508 113C341.508 115.775 339.237 118.046 336.462 118.046H258.949C256.174 118.046 253.903 115.775 253.903 113C253.903 110.555 255.67 108.502 257.99 108.051Z" fill="#DFF1FD"/>
<path d="M206.172 36.0269C205.915 35.3019 205.773 34.5229 205.773 33.7099C205.773 29.9649 208.746 26.9169 212.461 26.7929C213.303 23.3609 216.399 20.8149 220.09 20.8149C220.295 20.8149 220.498 20.8249 220.7 20.8409C221.376 20.2859 222.175 19.8759 223.05 19.6559C223.483 17.4909 225.008 15.7219 227.027 14.9449C226.942 14.3459 226.895 13.7349 226.895 13.1129C226.895 5.97594 232.681 0.189941 239.818 0.189941C246.731 0.189941 252.376 5.61794 252.724 12.4439C257.424 12.9969 261.07 16.9909 261.07 21.8399C261.07 22.0509 261.061 22.2599 261.047 22.4679C263.613 22.7969 265.597 24.9839 265.597 27.6389C265.597 29.6589 264.447 31.4069 262.769 32.2749C262.839 32.6169 262.877 32.9709 262.877 33.3339C262.877 34.2929 262.614 35.1879 262.163 35.9609H262.273C264.257 35.9609 265.88 37.5839 265.88 39.5679C265.88 41.5519 264.257 43.1749 262.273 43.1749H206.858C204.874 43.1749 203.251 41.5519 203.251 39.5679C203.25 37.8179 204.513 36.3499 206.172 36.0269Z" fill="#DFF1FD"/>
<path d="M288.144 192.174C287.784 191.16 287.586 190.07 287.586 188.932C287.586 183.694 291.745 179.43 296.941 179.257C298.119 174.457 302.449 170.894 307.612 170.894C307.899 170.894 308.183 170.908 308.465 170.93C309.411 170.154 310.528 169.58 311.752 169.273C312.357 166.245 314.491 163.77 317.315 162.684C317.196 161.846 317.131 160.992 317.131 160.121C317.131 150.138 325.224 142.045 335.207 142.045C344.876 142.045 352.772 149.637 353.259 159.185C359.833 159.959 364.933 165.546 364.933 172.327C364.933 172.622 364.92 172.914 364.901 173.205C368.49 173.665 371.266 176.724 371.266 180.438C371.266 183.263 369.658 185.709 367.31 186.922C367.409 187.4 367.461 187.896 367.461 188.403C367.461 189.744 367.093 190.997 366.462 192.077H366.616C369.391 192.077 371.662 194.348 371.662 197.123C371.662 199.898 369.391 202.169 366.616 202.169H289.103C286.328 202.169 284.057 199.898 284.057 197.123C284.057 194.678 285.823 192.625 288.144 192.174Z" fill="#DFF1FD"/>
<path d="M32.523 226.831C32.163 225.817 31.965 224.727 31.965 223.589C31.965 218.351 36.124 214.088 41.32 213.914C42.498 209.114 46.827 205.552 51.991 205.552C52.278 205.552 52.562 205.566 52.844 205.588C53.79 204.812 54.907 204.238 56.131 203.931C56.736 200.903 58.87 198.428 61.694 197.342C61.575 196.505 61.51 195.65 61.51 194.779C61.51 184.796 69.603 176.703 79.586 176.703C89.255 176.703 97.151 184.295 97.638 193.844C104.212 194.618 109.312 200.204 109.312 206.986C109.312 207.281 109.299 207.573 109.28 207.864C112.869 208.324 115.645 211.383 115.645 215.097C115.645 217.922 114.037 220.368 111.689 221.581C111.788 222.059 111.84 222.555 111.84 223.062C111.84 224.403 111.472 225.656 110.841 226.736H110.995C113.77 226.736 116.041 229.007 116.041 231.782C116.041 234.557 113.77 236.828 110.995 236.828H33.482C30.707 236.828 28.436 234.557 28.436 231.782C28.437 229.335 30.203 227.283 32.523 226.831Z" fill="#DFF1FD"/>
<path d="M221 330.035C342.543 330.035 441.073 314.181 441.073 294.624C441.073 275.067 342.543 259.213 221 259.213C99.457 259.213 0.927002 275.067 0.927002 294.624C0.927002 314.181 99.457 330.035 221 330.035Z" fill="#C6E6FD"/>
<path d="M365.639 122.048C365.639 122.048 358.989 97.901 360.22 87.257C361.45 76.613 367.291 80.005 368.397 87.945C369.503 95.885 376.052 91.716 371.224 80.155C366.396 68.594 377.914 60.682 380.121 67.683C382.329 74.684 372.658 99.252 376.278 100.562C379.898 101.872 380.205 89.219 384.106 89.687C388.007 90.155 388.485 102.517 381.178 111.352C373.871 120.186 373.842 126.669 370.841 128.064C367.839 129.459 365.639 122.048 365.639 122.048Z" fill="url(#paint0_linear_243_327)"/>
<path d="M368.924 119.73C368.924 119.73 367.841 109.6 369.547 105.365C371.254 101.13 373.493 92.744 373.493 92.744" stroke="#4089C1" stroke-width="1.8488" stroke-miterlimit="10" stroke-linecap="round"/>
<path d="M369.155 106.429C369.155 106.429 365.65 99.992 366.123 97.198" stroke="#4089C1" stroke-width="1.8488" stroke-miterlimit="10" stroke-linecap="round"/>
<path d="M368.503 110.279C368.639 110.742 381.439 103.938 382.368 99.949" stroke="#4089C1" stroke-width="1.8488" stroke-miterlimit="10" stroke-linecap="round"/>
<path d="M354.292 153.983C354.292 153.983 356.454 135.719 366.889 123.656C377.324 111.593 383.941 109.982 383.941 109.982C383.941 109.982 390.1 125.162 377.422 141.528C364.744 157.893 347.882 171.036 354.292 153.983Z" fill="url(#paint1_linear_243_327)"/>
<path d="M353.306 161.532C353.306 161.532 374.311 131.894 380.799 114.341" stroke="#B2C0CA" stroke-width="0.9244" stroke-miterlimit="10" stroke-linecap="round"/>
<path d="M355.301 158.661C355.301 158.661 362.987 155.501 364.191 154.279" stroke="#B2C0CA" stroke-width="0.9244" stroke-miterlimit="10" stroke-linecap="round"/>
<path d="M359.624 137.73C358.177 140.962 360.858 150.367 360.858 150.367C360.858 150.367 369.045 150.222 370.148 148.951" stroke="#B2C0CA" stroke-width="0.9244" stroke-miterlimit="10" stroke-linecap="round"/>
<path d="M366.195 142C366.195 142 371.863 141.633 374.854 140.642" stroke="#B2C0CA" stroke-width="0.9244" stroke-miterlimit="10" stroke-linecap="round"/>
<path d="M370.526 134.354C370.526 134.354 379.297 134.844 381.394 132.709" stroke="#B2C0CA" stroke-width="0.9244" stroke-miterlimit="10" stroke-linecap="round"/>
<path d="M368.357 138.183C368.357 138.183 365.271 128.437 367 125.835" stroke="#B2C0CA" stroke-width="0.9244" stroke-miterlimit="10" stroke-linecap="round"/>
<path d="M374.654 127.484C374.654 127.484 381.754 127.375 383.464 125.441" stroke="#B2C0CA" stroke-width="0.9244" stroke-miterlimit="10" stroke-linecap="round"/>
<path d="M376.708 123.535C376.708 123.535 374.79 119.362 375.481 118.227" stroke="#B2C0CA" stroke-width="0.9244" stroke-miterlimit="10" stroke-linecap="round"/>
<path d="M355.036 133.995C355.036 133.995 351.716 121.037 355.635 110.119C359.554 99.2 363.621 96.373 363.621 96.373C363.621 96.373 371.778 105.058 367.464 119.484C363.151 133.909 355.156 147.244 355.036 133.995Z" fill="url(#paint2_linear_243_327)"/>
<path d="M356.345 139.375C356.345 139.375 362.829 113.763 362.631 100.154" stroke="#B2C0CA" stroke-width="0.9244" stroke-miterlimit="10" stroke-linecap="round"/>
<path d="M356.946 136.905C356.946 136.905 361.333 132.747 361.829 131.603" stroke="#B2C0CA" stroke-width="0.9244" stroke-miterlimit="10" stroke-linecap="round"/>
<path d="M354.394 121.571C354.259 124.143 358.543 129.821 358.543 129.821C358.543 129.821 364.059 127.577 364.475 126.426" stroke="#B2C0CA" stroke-width="0.9244" stroke-miterlimit="10" stroke-linecap="round"/>
<path d="M359.971 122.746C359.971 122.746 363.721 121.012 365.49 119.555" stroke="#B2C0CA" stroke-width="0.9244" stroke-miterlimit="10" stroke-linecap="round"/>
<path d="M360.906 116.423C360.906 116.423 366.985 114.457 367.848 112.459" stroke="#B2C0CA" stroke-width="0.9244" stroke-miterlimit="10" stroke-linecap="round"/>
<path d="M360.438 119.59C360.438 119.59 355.79 113.786 356.282 111.568" stroke="#B2C0CA" stroke-width="0.9244" stroke-miterlimit="10" stroke-linecap="round"/>
<path d="M361.906 110.681C361.906 110.681 366.694 108.746 367.348 106.986" stroke="#B2C0CA" stroke-width="0.9244" stroke-miterlimit="10" stroke-linecap="round"/>
<path d="M362.265 107.463C362.265 107.463 359.87 105.134 360.041 104.183" stroke="#B2C0CA" stroke-width="0.9244" stroke-miterlimit="10" stroke-linecap="round"/>
<path d="M348.491 225.099C348.491 225.099 328.964 183.233 327.924 163.498C326.884 143.762 338.55 148.133 343.006 162.232C347.462 176.331 358.088 166.733 345.748 147.194C333.408 127.655 351.918 109.721 358.088 121.773C364.258 133.825 354.235 181.481 361.222 182.749C368.209 184.016 364.87 160.912 372.109 160.562C379.348 160.213 384.023 182.547 373.455 200.862C362.887 219.178 364.83 230.975 359.802 234.436C354.774 237.899 348.491 225.099 348.491 225.099Z" fill="url(#paint3_linear_243_327)"/>
<path d="M353.752 219.871C353.752 219.871 348.663 201.782 350.462 193.555C352.262 185.328 353.752 169.389 353.752 169.389" stroke="#4089C1" stroke-width="1.8488" stroke-miterlimit="10" stroke-linecap="round"/>
<path d="M350.077 195.612C350.077 195.612 341.721 184.985 341.721 179.758" stroke="#4089C1" stroke-width="1.8488" stroke-miterlimit="10" stroke-linecap="round"/>
<path d="M350.077 202.814C350.466 203.614 371.649 187.299 372.111 179.758" stroke="#4089C1" stroke-width="1.8488" stroke-miterlimit="10" stroke-linecap="round"/>
<path d="M359.964 263.73C359.964 263.73 348.998 237.61 353.828 213.521C358.658 189.432 366.304 182.25 366.304 182.25C366.304 182.25 386.081 197.92 381.511 229.479C376.941 261.038 364.317 291.452 359.964 263.73Z" fill="url(#paint4_linear_243_327)"/>
<path d="M364.372 274.596C364.372 274.596 370.028 218.928 365.4 190.477" stroke="#B2C0CA" stroke-width="1.8488" stroke-miterlimit="10" stroke-linecap="round"/>
<path d="M364.867 269.235C364.867 269.235 372.771 259.165 373.456 256.615" stroke="#B2C0CA" stroke-width="1.8488" stroke-miterlimit="10" stroke-linecap="round"/>
<path d="M354.774 237.899C355.288 243.329 366.021 253.9 366.021 253.9C366.021 253.9 376.884 247.491 377.398 244.95" stroke="#B2C0CA" stroke-width="1.8488" stroke-miterlimit="10" stroke-linecap="round"/>
<path d="M366.822 238.634C366.822 238.634 374.141 233.84 377.398 230.241" stroke="#B2C0CA" stroke-width="1.8488" stroke-miterlimit="10" stroke-linecap="round"/>
<path d="M366.822 225.099C366.822 225.099 378.95 219.099 380.14 214.644" stroke="#B2C0CA" stroke-width="1.8488" stroke-miterlimit="10" stroke-linecap="round"/>
<path d="M366.822 231.877C366.822 231.877 355.288 221.156 355.631 216.357" stroke="#B2C0CA" stroke-width="1.8488" stroke-miterlimit="10" stroke-linecap="round"/>
<path d="M367.141 212.758C367.141 212.758 376.574 207.222 377.398 203.332" stroke="#B2C0CA" stroke-width="1.8488" stroke-miterlimit="10" stroke-linecap="round"/>
<path d="M366.897 205.905C366.897 205.905 361.159 201.768 361.223 199.722" stroke="#B2C0CA" stroke-width="1.8488" stroke-miterlimit="10" stroke-linecap="round"/>
<path d="M377.306 256.38C377.306 256.38 374.057 228.238 385.412 206.451C396.767 184.664 406.112 179.898 406.112 179.898C406.112 179.898 420.736 200.461 407.548 229.494C394.36 258.527 373.758 284.216 377.306 256.38Z" fill="url(#paint5_linear_243_327)"/>
<path d="M378.51 268.044C378.51 268.044 399.462 216.161 402.95 187.547" stroke="#B2C0CA" stroke-width="1.8488" stroke-miterlimit="10" stroke-linecap="round"/>
<path d="M380.48 263.033C380.48 263.033 390.878 255.566 392.247 253.308" stroke="#B2C0CA" stroke-width="1.8488" stroke-miterlimit="10" stroke-linecap="round"/>
<path d="M379.524 230.126C378.504 235.484 385.864 248.628 385.864 248.628C385.864 248.628 398.083 245.502 399.285 243.205" stroke="#B2C0CA" stroke-width="1.8488" stroke-miterlimit="10" stroke-linecap="round"/>
<path d="M390.889 234.191C390.889 234.191 399.255 231.628 403.385 229.079" stroke="#B2C0CA" stroke-width="1.8488" stroke-miterlimit="10" stroke-linecap="round"/>
<path d="M394.663 221.192C394.663 221.192 407.983 218.811 410.368 214.865" stroke="#B2C0CA" stroke-width="1.8488" stroke-miterlimit="10" stroke-linecap="round"/>
<path d="M392.773 227.702C392.773 227.702 384.685 214.191 386.352 209.677" stroke="#B2C0CA" stroke-width="1.8488" stroke-miterlimit="10" stroke-linecap="round"/>
<path d="M398.409 209.43C398.409 209.43 409.012 206.743 410.888 203.238" stroke="#B2C0CA" stroke-width="1.8488" stroke-miterlimit="10" stroke-linecap="round"/>
<path d="M400.086 202.781C400.086 202.781 395.729 197.208 396.361 195.261" stroke="#B2C0CA" stroke-width="1.8488" stroke-miterlimit="10" stroke-linecap="round"/>
<path d="M173.717 249.243C173.717 249.243 132.6 237.831 108.628 209.638C84.6551 181.445 83.2991 165.702 83.2991 165.702C83.2991 165.702 120.285 156.944 153.331 191.801C186.378 226.659 210.555 269.969 173.717 249.243Z" fill="url(#paint6_linear_243_327)"/>
<path d="M190.678 254.173C190.678 254.173 130.14 195.532 92.1831 174.45" stroke="#B2C0CA" stroke-width="1.8488" stroke-miterlimit="10" stroke-linecap="round"/>
<path d="M184.801 248.584C184.801 248.584 180.271 229.841 177.896 226.65" stroke="#B2C0CA" stroke-width="1.8488" stroke-miterlimit="10" stroke-linecap="round"/>
<path d="M138.332 231.271C145.232 235.731 167.746 232.907 167.746 232.907C167.746 232.907 170.307 214.083 167.783 211.104" stroke="#B2C0CA" stroke-width="1.8488" stroke-miterlimit="10" stroke-linecap="round"/>
<path d="M150.446 217.712C150.446 217.712 151.609 204.584 150.393 197.375" stroke="#B2C0CA" stroke-width="1.8488" stroke-miterlimit="10" stroke-linecap="round"/>
<path d="M134.443 205.08C134.443 205.08 138.668 185.141 134.511 179.577" stroke="#B2C0CA" stroke-width="1.8488" stroke-miterlimit="10" stroke-linecap="round"/>
<path d="M142.458 211.406C142.458 211.406 119.018 215.037 113.664 210.153" stroke="#B2C0CA" stroke-width="1.8488" stroke-miterlimit="10" stroke-linecap="round"/>
<path d="M120.149 193.186C120.149 193.186 122.408 176.866 118.578 172.261" stroke="#B2C0CA" stroke-width="1.8488" stroke-miterlimit="10" stroke-linecap="round"/>
<path d="M111.82 187.078C111.82 187.078 101.573 190.001 99.2141 188.016" stroke="#B2C0CA" stroke-width="1.8488" stroke-miterlimit="10" stroke-linecap="round"/>
<path d="M91.4901 200.144C91.4901 200.144 66.1681 193.116 51.4041 175.753C36.6401 158.39 35.8051 148.695 35.8051 148.695C35.8051 148.695 58.5831 143.301 78.9351 164.768C99.2871 186.235 114.177 212.908 91.4901 200.144Z" fill="url(#paint7_linear_243_327)"/>
<path d="M101.936 203.18C101.936 203.18 64.6531 167.065 41.2771 154.082" stroke="#B2C0CA" stroke-width="1.8488" stroke-miterlimit="10" stroke-linecap="round"/>
<path d="M98.3161 199.738C98.3161 199.738 95.5261 188.195 94.0641 186.23" stroke="#B2C0CA" stroke-width="1.8488" stroke-miterlimit="10" stroke-linecap="round"/>
<path d="M69.698 189.076C73.947 191.823 87.813 190.083 87.813 190.083C87.813 190.083 89.39 178.49 87.836 176.655" stroke="#B2C0CA" stroke-width="1.8488" stroke-miterlimit="10" stroke-linecap="round"/>
<path d="M77.158 180.725C77.158 180.725 77.874 172.64 77.125 168.2" stroke="#B2C0CA" stroke-width="1.8488" stroke-miterlimit="10" stroke-linecap="round"/>
<path d="M67.3031 172.946C67.3031 172.946 69.9051 160.666 67.3451 157.24" stroke="#B2C0CA" stroke-width="1.8488" stroke-miterlimit="10" stroke-linecap="round"/>
<path d="M72.2391 176.842C72.2391 176.842 57.8031 179.078 54.5061 176.071" stroke="#B2C0CA" stroke-width="1.8488" stroke-miterlimit="10" stroke-linecap="round"/>
<path d="M58.5001 165.621C58.5001 165.621 59.8911 155.57 57.5321 152.734" stroke="#B2C0CA" stroke-width="1.8488" stroke-miterlimit="10" stroke-linecap="round"/>
<path d="M53.3701 161.859C53.3701 161.859 47.0591 163.659 45.6061 162.437" stroke="#B2C0CA" stroke-width="1.8488" stroke-miterlimit="10" stroke-linecap="round"/>
<path d="M83.4751 176.137C83.4751 176.137 64.6251 157.826 59.9961 135.51C55.3671 113.194 59.2841 104.286 59.2841 104.286C59.2841 104.286 81.8591 110.476 89.4231 139.074C96.9871 167.672 97.2621 198.218 83.4751 176.137Z" fill="url(#paint8_linear_243_327)"/>
<path d="M91.1851 183.811C91.1851 183.811 75.7881 134.241 61.5011 111.638" stroke="#B2C0CA" stroke-width="1.8488" stroke-miterlimit="10" stroke-linecap="round"/>
<path d="M89.6602 179.055C89.6602 179.055 92.7472 167.588 92.4062 165.162" stroke="#B2C0CA" stroke-width="1.8488" stroke-miterlimit="10" stroke-linecap="round"/>
<path d="M69.6602 155.975C72.0722 160.423 85.0732 165.546 85.0732 165.546C85.0732 165.546 92.0172 156.129 91.5322 153.774" stroke="#B2C0CA" stroke-width="1.8488" stroke-miterlimit="10" stroke-linecap="round"/>
<path d="M80.2111 152.225C80.2111 152.225 84.7171 145.474 86.1881 141.219" stroke="#B2C0CA" stroke-width="1.8488" stroke-miterlimit="10" stroke-linecap="round"/>
<path d="M75.2931 140.672C75.2931 140.672 83.4651 131.144 82.8621 126.91" stroke="#B2C0CA" stroke-width="1.8488" stroke-miterlimit="10" stroke-linecap="round"/>
<path d="M77.7561 146.458C77.7561 146.458 64.0161 141.498 62.5651 137.277" stroke="#B2C0CA" stroke-width="1.8488" stroke-miterlimit="10" stroke-linecap="round"/>
<path d="M71.0811 130.023C71.0811 130.023 77.1211 121.87 76.4121 118.251" stroke="#B2C0CA" stroke-width="1.8488" stroke-miterlimit="10" stroke-linecap="round"/>
<path d="M68.3841 124.262C68.3841 124.262 61.9831 122.816 61.2941 121.046" stroke="#B2C0CA" stroke-width="1.8488" stroke-miterlimit="10" stroke-linecap="round"/>
<path d="M98.3021 231.075C98.3021 231.075 73.5411 177.989 72.2231 152.965C70.9051 127.941 85.6971 133.483 91.3481 151.36C96.9981 169.237 110.473 157.067 94.8251 132.292C79.1781 107.517 102.649 84.777 110.472 100.059C118.296 115.341 105.587 175.769 114.446 177.376C123.305 178.983 119.072 149.686 128.251 149.243C137.43 148.8 143.358 177.12 129.957 200.344C116.557 223.568 119.021 238.527 112.645 242.916C106.27 247.306 98.3021 231.075 98.3021 231.075Z" fill="url(#paint9_linear_243_327)"/>
<path d="M104.973 224.447C104.973 224.447 98.52 201.51 100.802 191.079C103.084 180.647 104.973 160.436 104.973 160.436" stroke="#4089C1" stroke-width="1.8488" stroke-miterlimit="10" stroke-linecap="round"/>
<path d="M100.313 193.686C100.313 193.686 89.718 180.211 89.718 173.583" stroke="#4089C1" stroke-width="1.8488" stroke-miterlimit="10" stroke-linecap="round"/>
<path d="M100.313 202.818C100.806 203.832 127.667 183.145 128.251 173.584" stroke="#4089C1" stroke-width="1.8488" stroke-miterlimit="10" stroke-linecap="round"/>
<path d="M173.433 263.85C173.433 263.85 131.961 273.896 97.297 260.939C62.633 247.982 53.785 234.89 53.785 234.89C53.785 234.89 81.829 209.236 127.664 223.598C173.499 237.959 215.701 264.022 173.433 263.85Z" fill="url(#paint10_linear_243_327)"/>
<path d="M190.649 259.9C190.649 259.9 109.222 238.145 65.8041 238.206" stroke="#B2C0CA" stroke-width="1.8488" stroke-miterlimit="10" stroke-linecap="round"/>
<path d="M182.794 257.879C182.794 257.879 169.714 243.712 166.085 242.081" stroke="#B2C0CA" stroke-width="1.8488" stroke-miterlimit="10" stroke-linecap="round"/>
<path d="M133.776 265.376C141.974 265.913 160.266 252.487 160.266 252.487C160.266 252.487 153.339 234.797 149.685 233.423" stroke="#B2C0CA" stroke-width="1.8488" stroke-miterlimit="10" stroke-linecap="round"/>
<path d="M137.757 247.635C137.757 247.635 132.382 235.602 127.81 229.896" stroke="#B2C0CA" stroke-width="1.8488" stroke-miterlimit="10" stroke-linecap="round"/>
<path d="M117.629 244.391C117.629 244.391 111.613 224.917 105.274 222.08" stroke="#B2C0CA" stroke-width="1.8488" stroke-miterlimit="10" stroke-linecap="round"/>
<path d="M127.71 246.016C127.71 246.016 109.002 260.598 101.948 258.938" stroke="#B2C0CA" stroke-width="1.8488" stroke-miterlimit="10" stroke-linecap="round"/>
<path d="M99.353 240.959C99.353 240.959 93.382 225.604 87.795 223.446" stroke="#B2C0CA" stroke-width="1.8488" stroke-miterlimit="10" stroke-linecap="round"/>
<path d="M89.1041 239.678C89.1041 239.678 81.5761 247.22 78.5491 246.634" stroke="#B2C0CA" stroke-width="1.8488" stroke-miterlimit="10" stroke-linecap="round"/>
<path d="M97.066 251.707C95.948 250.432 94.825 249.428 93.587 248.434C92.359 247.456 91.063 246.555 89.692 245.745C88.323 244.933 86.876 244.214 85.347 243.601C84.968 243.442 84.583 243.298 84.185 243.165L83.593 242.961C83.372 242.891 83.265 242.833 82.884 242.745C81.593 242.381 80.231 242.341 79.007 242.487C77.772 242.633 76.654 242.969 75.681 243.383C74.695 243.795 73.813 244.278 73.021 244.795C71.414 245.827 70.105 246.978 68.886 248.159C67.679 249.343 66.597 250.574 65.597 251.847C65.096 252.483 64.613 253.127 64.144 253.783L63.449 254.782C63.277 255.039 63.124 255.267 62.948 255.542C60.975 257.955 59.01 260.374 57.07 262.813C55.069 265.308 53.069 267.804 51.1 270.324C49.115 272.831 47.155 275.359 45.202 277.892C44.439 278.882 43.697 279.888 42.941 280.883V292.73C44.245 292.758 45.552 292.245 46.468 291.177C48.552 288.749 50.612 286.301 52.65 283.835C54.687 281.369 56.717 278.897 58.722 276.405C60.743 273.926 62.733 271.422 64.722 268.918C66.721 266.422 68.695 263.905 70.66 261.381L70.848 261.139L71.025 260.855L71.492 260.107L72.03 259.298C72.398 258.76 72.78 258.229 73.171 257.71C73.958 256.677 74.777 255.69 75.615 254.791C76.455 253.909 77.329 253.098 78.16 252.523C78.984 251.929 79.774 251.585 80.192 251.522C80.409 251.485 80.537 251.463 80.655 251.494C80.634 251.47 80.869 251.543 80.998 251.577L81.45 251.7C81.752 251.774 82.053 251.877 82.359 251.968C83.579 252.332 84.821 252.757 86.074 253.224C87.328 253.687 88.601 254.174 89.884 254.682C91.154 255.177 92.492 255.745 93.739 256.179L93.995 256.269C94.929 256.592 96.006 256.418 96.802 255.72C97.984 254.686 98.102 252.888 97.066 251.707Z" fill="#0D2933"/>
<path d="M178.836 245.053C178.745 244.519 178.593 243.998 178.396 243.503C178 242.517 177.405 241.691 176.783 241.033C176.16 240.367 175.498 239.857 174.846 239.431C174.19 238.997 173.544 238.681 172.902 238.393C172.585 238.258 172.259 238.129 171.948 238.021L171.471 237.853L170.853 237.689C169.195 237.261 167.399 237.236 165.786 237.545C164.158 237.84 162.71 238.422 161.443 239.108C160.163 239.79 159.053 240.592 158.057 241.448C157.053 242.3 156.159 243.201 155.323 244.137C154.906 244.606 154.507 245.085 154.119 245.579L153.544 246.336C153.342 246.616 153.196 246.824 152.939 247.223L152.626 247.708L152.426 248.325C150.579 254.016 148.745 259.711 146.965 265.423L144.565 273.235V288.083C144.583 288.09 144.597 288.1 144.615 288.107C146.962 288.947 149.547 287.726 150.387 285.378C151.396 282.56 152.379 279.734 153.348 276.903L156.206 268.395C158.017 262.933 159.777 257.454 161.524 251.972L161.868 251.485C162.12 251.141 162.384 250.8 162.656 250.472C163.202 249.817 163.777 249.199 164.364 248.667C165.536 247.601 166.738 246.818 167.627 246.603C168.077 246.475 168.437 246.448 168.832 246.51L168.983 246.529L169.262 246.594C169.457 246.633 169.625 246.689 169.805 246.729C170.147 246.816 170.478 246.905 170.743 246.983C171.309 247.14 171.599 247.25 171.801 247.115C171.896 247.059 172.019 246.969 172.182 246.978C172.253 246.982 172.35 247.012 172.431 247.064L172.56 247.149C172.582 247.164 172.605 247.176 172.63 247.186C172.643 247.186 172.655 247.193 172.673 247.189C172.696 247.173 172.691 247.213 172.76 247.104C172.068 248.48 172.623 250.156 173.998 250.847C175.374 251.539 177.05 250.984 177.741 249.609L178.022 249.162L178.215 248.824C178.336 248.601 178.44 248.375 178.523 248.14C178.695 247.673 178.827 247.174 178.871 246.652C178.922 246.134 178.914 245.591 178.836 245.053Z" fill="#0D2933"/>
<path opacity="0.59" d="M51.271 267.485C46.69 267.485 42.941 271.233 42.941 275.815V285.268L60.724 267.485H51.271Z" fill="#7FC8FD"/>
<path opacity="0.59" d="M75.729 267.485H67.242L42.941 291.786V295.086C42.941 298.677 45.247 301.746 48.449 302.91L81.516 269.843C80.014 268.388 77.973 267.485 75.729 267.485Z" fill="#7FC8FD"/>
<path opacity="0.59" d="M84.059 275.815C84.059 273.477 83.08 271.36 81.515 269.844L48.449 302.91C49.333 303.231 50.28 303.416 51.271 303.416H62.103L84.06 281.459L84.059 275.815Z" fill="#F0F8FF"/>
<path opacity="0.59" d="M62.103 303.416H75.73C80.312 303.416 84.06 299.667 84.06 295.086V281.459L62.103 303.416Z" fill="#7FC8FD"/>
<path opacity="0.59" d="M60.724 267.485L42.941 285.268V291.786L67.242 267.485H60.724Z" fill="#F0F8FF"/>
<path opacity="0.59" d="M113.303 267.485C108.721 267.485 104.973 271.233 104.973 275.815V285.718L123.206 267.485H113.303Z" fill="#7FC8FD"/>
<path opacity="0.59" d="M123.206 267.485L104.973 285.718V290.663L128.151 267.485H123.206Z" fill="#F0F8FF"/>
<path opacity="0.59" d="M137.761 267.485H128.151L104.973 290.663V295.086C104.973 298.493 107.047 301.436 109.994 302.723L143.194 269.523C141.732 268.257 139.834 267.485 137.761 267.485Z" fill="#7FC8FD"/>
<path opacity="0.59" d="M146.091 275.815C146.091 273.307 144.963 271.053 143.194 269.523L109.994 302.723C111.01 303.167 112.128 303.416 113.303 303.416H121.887L146.091 279.212V275.815Z" fill="#F0F8FF"/>
<path opacity="0.59" d="M121.887 303.416H137.761C142.342 303.416 146.091 299.667 146.091 295.086V279.212L121.887 303.416Z" fill="#7FC8FD"/>
<path d="M75.729 303.416H51.271C46.69 303.416 42.941 299.667 42.941 295.086V275.815C42.941 271.233 46.689 267.485 51.271 267.485H75.729C80.311 267.485 84.059 271.233 84.059 275.815V295.086C84.059 299.667 80.311 303.416 75.729 303.416Z" stroke="#174859" stroke-width="5.5533" stroke-miterlimit="10"/>
<path d="M137.761 303.416H113.303C108.721 303.416 104.973 299.667 104.973 295.086V275.815C104.973 271.233 108.721 267.485 113.303 267.485H137.761C142.342 267.485 146.091 271.233 146.091 275.815V295.086C146.091 299.667 142.343 303.416 137.761 303.416Z" stroke="#174859" stroke-width="5.5533" stroke-miterlimit="10"/>
<path d="M84.0591 283.296C84.0591 283.296 95.1531 271.297 104.973 283.296" stroke="#174859" stroke-width="5.5533" stroke-miterlimit="10"/>
<path d="M295.113 251.957C297.432 253.749 301.092 255.815 306.023 256.303C308.376 256.536 310.603 255.186 311.482 252.992L313.634 247.619C301.851 248.596 295.636 240.412 295.636 240.412L293.472 245.817C292.598 248.001 293.251 250.518 295.113 251.957Z" fill="#FF5D7B"/>
<path d="M330.693 167.137L301.337 240.433L308.099 243.142L337.456 169.845L330.693 167.137Z" fill="#F4B031"/>
<path d="M337.456 169.846L308.099 243.143L314.426 245.677L343.782 172.38L337.456 169.846Z" fill="#E8A423"/>
<path d="M325.784 165.171L296.427 238.467L301.335 240.433L330.692 167.136L325.784 165.171Z" fill="#F4C43E"/>
<path d="M325.777 165.149L341.066 153.046L343.775 172.357C343.775 172.357 334.152 174.578 325.777 165.149Z" fill="#FACFC9"/>
<path d="M335.337 157.58C337.741 159.142 340.076 159.976 342.097 160.401L341.065 153.045L335.337 157.58Z" fill="#174859"/>
<path d="M294.639 242.904C294.639 242.904 300.854 251.088 312.637 250.111L316.125 241.401C304.343 242.378 298.127 234.194 298.127 234.194L294.639 242.904Z" fill="#174859"/>
<path d="M301.086 264.393C302.863 266.723 305.865 269.665 310.503 271.411C312.716 272.244 315.216 271.516 316.632 269.623L320.099 264.989C308.464 262.888 304.576 253.375 304.576 253.375L301.088 258.037C299.678 259.921 299.658 262.522 301.086 264.393Z" fill="#FF5D7B"/>
<path d="M357.392 191.641L310.088 254.863L315.921 259.227L363.225 196.005L357.392 191.641Z" fill="#F4B031"/>
<path d="M363.224 195.999L315.92 259.221L321.377 263.304L368.68 200.082L363.224 195.999Z" fill="#E8A423"/>
<path d="M353.159 188.473L305.855 251.695L310.088 254.862L357.392 191.641L353.159 188.473Z" fill="#F4C43E"/>
<path d="M353.143 188.459L371.04 180.718L368.666 200.073C368.666 200.073 358.796 199.732 353.143 188.459Z" fill="#FACFC9"/>
<path d="M364.335 183.618C366.253 185.748 368.294 187.158 370.136 188.091L371.04 180.718L364.335 183.618Z" fill="#174859"/>
<path d="M302.967 255.525C302.967 255.525 306.856 265.038 318.49 267.139L324.111 259.626C312.476 257.525 308.588 248.012 308.588 248.012L302.967 255.525Z" fill="#174859"/>
<path d="M413.333 267.325L407.257 289.933C406.696 292.019 404.531 293.267 402.445 292.706C400.359 292.145 399.111 289.98 399.672 287.894L405.748 265.286C406.309 263.2 408.474 261.952 410.56 262.513C412.645 263.074 413.893 265.239 413.333 267.325Z" fill="#AAB9D8"/>
<path d="M342.93 222.872C323.083 217.538 302.656 229.703 298.037 249.923C293.783 268.544 304.966 287.546 323.304 292.889C332.994 295.712 342.867 294.324 351.018 289.833C355.316 287.465 360.336 286.768 365.076 288.042L369.388 289.201C377.31 291.33 385.457 286.634 387.586 278.713L390.689 267.169C392.818 259.247 388.122 251.1 380.201 248.971L375.888 247.812C371.165 246.542 367.166 243.449 364.648 239.256C359.971 231.471 352.394 225.416 342.93 222.872Z" fill="#B4D3F7"/>
<path d="M328.533 221.964C331.165 221.997 333.835 222.351 336.493 223.066C344.858 225.314 351.556 230.666 355.689 237.548C357.914 241.254 361.449 243.988 365.623 245.11L369.436 246.135C376.438 248.017 380.588 255.218 378.706 262.22L375.964 272.423C374.082 279.425 366.881 283.575 359.879 281.693L356.068 280.669C351.879 279.543 347.442 280.159 343.643 282.252C336.438 286.221 327.712 287.448 319.147 284.953C308.753 281.925 300.968 273.929 297.706 264.244C300.073 277.483 309.722 288.935 323.304 292.892C332.994 295.715 342.867 294.327 351.018 289.836C355.316 287.468 360.336 286.772 365.076 288.045L369.388 289.204C377.31 291.333 385.457 286.637 387.586 278.716L390.689 267.172C392.818 259.25 388.122 251.103 380.201 248.974L375.888 247.815C371.165 246.546 367.166 243.452 364.648 239.259C359.972 231.473 352.394 225.418 342.93 222.874C338.086 221.57 333.208 221.318 328.533 221.964Z" fill="#99C5F7"/>
<path d="M383.707 280.264L341.167 268.83C341.167 268.83 346.401 268.973 345.32 264.64C344.239 260.306 333.5 263.947 339.233 265.657C344.966 267.367 351.478 259.219 345.337 255.042C339.196 250.865 335.386 260.453 344.343 258.565C353.3 256.677 346.2 250.105 346.2 250.105L388.739 261.539" stroke="#C1DEFF" stroke-width="1.4337" stroke-miterlimit="10" stroke-linejoin="round"/>
<path d="M398.733 260.395L391.149 288.61C390.449 291.213 387.747 292.771 385.144 292.071C382.541 291.371 380.983 288.669 381.683 286.066L389.267 257.851C389.967 255.248 392.669 253.69 395.272 254.39C397.875 255.089 399.433 257.792 398.733 260.395Z" fill="#E0EFF2"/>
<path d="M402.572 261.427L394.989 289.642C394.289 292.245 391.587 293.803 388.983 293.103C386.38 292.403 384.822 289.701 385.522 287.097L393.105 258.882C393.805 256.279 396.507 254.721 399.11 255.421C401.714 256.121 403.271 258.823 402.572 261.427Z" fill="#E0EFF2"/>
<path d="M406.41 262.458L398.827 290.673C398.127 293.276 395.425 294.834 392.822 294.134C390.219 293.434 388.661 290.732 389.361 288.129L396.944 259.914C397.644 257.311 400.346 255.753 402.95 256.453C405.552 257.152 407.109 259.855 406.41 262.458Z" fill="#E0EFF2"/>
<path d="M410.248 263.49L402.665 291.705C401.965 294.308 399.263 295.866 396.66 295.166C394.057 294.466 392.499 291.764 393.199 289.161L400.782 260.946C401.482 258.343 404.184 256.785 406.787 257.485C409.39 258.184 410.948 260.887 410.248 263.49Z" fill="#E0EFF2"/>
<path d="M395.105 258.227L386.924 288.666C386.169 291.475 383.254 293.155 380.445 292.4C377.636 291.645 375.956 288.73 376.711 285.921L384.892 255.482C385.647 252.673 388.562 250.993 391.371 251.748C394.18 252.503 395.86 255.419 395.105 258.227Z" fill="#AAB9D8"/>
<path d="M325.564 241.201C324.667 244.538 321.203 246.534 317.867 245.637L314.736 244.795C311.399 243.898 309.403 240.434 310.3 237.098C311.197 233.761 314.661 231.765 317.997 232.662L321.128 233.504C324.465 234.401 326.461 237.865 325.564 241.201Z" fill="#C1DEFF"/>
<path d="M337.814 242.92C337.134 245.449 334.508 246.963 331.979 246.283C329.45 245.603 327.936 242.977 328.616 240.448C329.296 237.918 331.922 236.405 334.451 237.085C336.981 237.765 338.494 240.391 337.814 242.92Z" fill="#C1DEFF"/>
<path d="M411.182 262.75L407.257 277.354C406.696 279.44 404.531 280.688 402.445 280.127C402.394 280.113 402.351 280.088 402.301 280.072C401.273 282.09 398.929 283.197 396.66 282.587C395.977 282.403 395.369 282.08 394.852 281.658C394.193 281.763 393.505 281.739 392.822 281.555C392.139 281.371 391.531 281.047 391.014 280.626C390.355 280.731 389.667 280.707 388.984 280.523C388.301 280.34 387.693 280.016 387.176 279.594C386.517 279.699 385.829 279.675 385.146 279.491C384.922 279.431 384.708 279.35 384.5 279.262C383.317 279.959 381.869 280.203 380.447 279.821C378.78 279.373 377.515 278.161 376.917 276.664C375.914 276.921 374.881 277.084 373.829 277.125C372.369 277.182 370.876 277.023 369.39 276.623L365.078 275.464C364.486 275.305 363.889 275.176 363.29 275.078C359.695 274.489 356.012 274.987 352.664 276.446C352.106 276.689 351.557 276.959 351.02 277.255C348.473 278.658 345.757 279.759 342.932 280.522C341.802 280.827 340.654 281.079 339.492 281.275C337.169 281.666 334.79 281.833 332.385 281.758C331.183 281.721 329.974 281.623 328.763 281.462C326.946 281.221 325.123 280.84 323.306 280.311C322.55 280.091 321.811 279.839 321.08 279.573C320.894 279.505 320.709 279.436 320.525 279.366C319.836 279.103 319.156 278.825 318.491 278.523C318.455 278.507 318.418 278.493 318.383 278.476C317.683 278.155 317.001 277.807 316.328 277.445C316.167 277.358 316.008 277.27 315.849 277.181C315.227 276.833 314.614 276.472 314.017 276.091C313.972 276.062 313.926 276.036 313.881 276.007C313.236 275.591 312.611 275.151 311.998 274.698C311.871 274.604 311.745 274.508 311.619 274.412C311.049 273.979 310.49 273.533 309.949 273.068C309.912 273.036 309.873 273.006 309.836 272.974C309.249 272.466 308.683 271.938 308.131 271.395C308.043 271.308 307.956 271.22 307.869 271.132C307.346 270.607 306.837 270.07 306.348 269.516C306.328 269.493 306.306 269.471 306.286 269.447C305.762 268.85 305.26 268.235 304.776 267.607C304.726 267.542 304.678 267.477 304.629 267.412C304.16 266.794 303.708 266.164 303.28 265.519C303.274 265.51 303.268 265.501 303.262 265.492C302.811 264.812 302.385 264.117 301.98 263.409C301.962 263.377 301.944 263.345 301.926 263.312C299.871 259.694 298.434 255.727 297.701 251.588C296.166 260.152 297.846 268.705 301.926 275.89C301.944 275.922 301.962 275.955 301.98 275.987C302.385 276.695 302.811 277.39 303.262 278.07C303.268 278.079 303.274 278.088 303.28 278.097C303.709 278.743 304.16 279.372 304.629 279.99C304.678 280.055 304.726 280.12 304.776 280.185C305.26 280.813 305.762 281.428 306.286 282.025C306.306 282.048 306.328 282.07 306.348 282.094C306.837 282.648 307.346 283.185 307.869 283.71C307.956 283.798 308.043 283.886 308.131 283.973C308.683 284.515 309.249 285.044 309.836 285.552C309.873 285.584 309.912 285.614 309.949 285.646C310.491 286.111 311.049 286.557 311.619 286.99C311.745 287.086 311.87 287.182 311.998 287.276C312.611 287.73 313.237 288.169 313.881 288.585C313.926 288.614 313.972 288.64 314.017 288.669C314.614 289.051 315.227 289.412 315.849 289.759C316.008 289.848 316.167 289.936 316.328 290.023C317.001 290.385 317.683 290.733 318.383 291.054C318.418 291.07 318.455 291.084 318.491 291.101C319.156 291.403 319.836 291.68 320.525 291.944C320.709 292.014 320.894 292.084 321.08 292.151C321.811 292.417 322.55 292.668 323.306 292.889C325.123 293.418 326.946 293.8 328.763 294.04C329.974 294.2 331.183 294.298 332.385 294.336C334.79 294.411 337.168 294.244 339.492 293.853C340.654 293.657 341.802 293.406 342.932 293.1C345.758 292.336 348.473 291.236 351.02 289.833C351.557 289.537 352.106 289.267 352.664 289.024C356.011 287.565 359.694 287.067 363.29 287.656C363.889 287.754 364.486 287.883 365.078 288.042L369.39 289.201C370.875 289.6 372.369 289.76 373.829 289.703C374.882 289.662 375.915 289.499 376.917 289.242C377.516 290.739 378.78 291.951 380.447 292.399C381.869 292.781 383.318 292.537 384.5 291.84C384.708 291.929 384.922 292.009 385.146 292.069C385.829 292.253 386.518 292.277 387.176 292.172C387.693 292.593 388.301 292.917 388.984 293.101C389.667 293.285 390.356 293.309 391.014 293.204C391.531 293.625 392.139 293.949 392.822 294.133C393.505 294.317 394.193 294.341 394.852 294.236C395.369 294.657 395.977 294.981 396.66 295.165C398.93 295.775 401.274 294.669 402.301 292.65C402.351 292.665 402.394 292.691 402.445 292.705C404.531 293.266 406.696 292.018 407.257 289.932L413.333 267.324C413.835 265.458 412.882 263.537 411.182 262.75Z" fill="#E0EFF2"/>
<path d="M183.503 253.062C183.503 253.062 186.094 249.607 195.597 248.743C205.099 247.879 276.798 248.743 276.798 248.743C276.798 248.743 281.117 249.607 283.709 253.062C286.3 256.517 310.488 287.615 310.488 287.615C310.488 287.615 313.943 291.934 310.488 294.526C307.033 297.117 167.955 294.526 167.955 294.526C167.955 294.526 160.18 295.39 163.636 289.343C167.09 283.296 183.503 253.062 183.503 253.062Z" fill="#164454"/>
<path d="M304.44 271.203H167.954V289.343H304.44V271.203Z" fill="white"/>
<path d="M183.503 233.194C183.503 233.194 186.094 229.739 195.597 228.875C205.099 228.011 276.798 228.875 276.798 228.875C276.798 228.875 281.117 229.739 283.709 233.194C286.301 236.649 310.488 267.747 310.488 267.747C310.488 267.747 313.943 272.066 310.488 274.658C307.033 277.249 167.955 274.658 167.955 274.658C167.955 274.658 160.18 275.522 163.636 269.475C167.09 263.428 183.503 233.194 183.503 233.194Z" fill="#164454"/>
<path d="M304.44 277.249H167.954V278.113H304.44V277.249Z" fill="#DFECF0"/>
<path d="M304.44 279.841H167.954V280.705H304.44V279.841Z" fill="#DFECF0"/>
<path d="M304.44 282.432H167.954V283.296H304.44V282.432Z" fill="#DFECF0"/>
<path d="M304.44 285.024H167.954V285.888H304.44V285.024Z" fill="#DFECF0"/>
<path d="M304.44 287.615H167.954V288.479H304.44V287.615Z" fill="#DFECF0"/>
<path d="M184.025 229.163C184.025 229.163 186.433 225.953 195.261 225.15C204.09 224.347 270.706 225.15 270.706 225.15C270.706 225.15 274.719 225.953 277.127 229.163C279.535 232.373 302.008 261.267 302.008 261.267C302.008 261.267 305.218 265.28 302.008 267.688C298.798 270.096 169.578 267.688 169.578 267.688C169.578 267.688 162.355 268.491 165.565 262.872C168.775 257.254 184.025 229.163 184.025 229.163Z" fill="#66A1ED"/>
<path d="M296.39 246.018H169.578V262.873H296.39V246.018Z" fill="white"/>
<path d="M184.025 210.703C184.025 210.703 186.433 207.493 195.261 206.69C204.09 205.887 270.706 206.69 270.706 206.69C270.706 206.69 274.719 207.493 277.127 210.703C279.535 213.914 302.008 242.807 302.008 242.807C302.008 242.807 305.218 246.82 302.008 249.228C298.798 251.636 169.578 249.228 169.578 249.228C169.578 249.228 162.355 250.031 165.565 244.412C168.775 238.794 184.025 210.703 184.025 210.703Z" fill="#8CBDF7"/>
<path d="M296.39 251.636H169.578V252.439H296.39V251.636Z" fill="#DFECF0"/>
<path d="M296.39 254.044H169.578V254.847H296.39V254.044Z" fill="#DFECF0"/>
<path d="M296.39 256.452H169.578V257.255H296.39V256.452Z" fill="#DFECF0"/>
<path d="M296.39 258.859H169.578V259.662H296.39V258.859Z" fill="#DFECF0"/>
<path d="M296.39 261.267H169.578V262.07H296.39V261.267Z" fill="#DFECF0"/>
<path d="M275.831 308.423C276.755 304.889 277.339 299.682 275.492 293.787C274.611 290.975 271.976 289.078 269.03 289.141L261.817 289.295C268.687 302.334 262.331 313.457 262.331 313.457L269.587 313.303C272.521 313.239 275.089 311.262 275.831 308.423Z" fill="#FF5D7B"/>
<path d="M259.376 297.849L160.967 299.945L161.16 309.024L259.569 306.928L259.376 297.849Z" fill="#F4B031"/>
<path d="M259.195 289.354L160.786 291.451L160.967 299.944L259.376 297.847L259.195 289.354Z" fill="#E8A423"/>
<path d="M259.569 306.928L161.159 309.024L161.3 315.614L259.709 313.517L259.569 306.928Z" fill="#F4C43E"/>
<path d="M161.289 315.607L139.945 303.975L160.775 291.445C160.775 291.445 168.018 301.399 161.289 315.607Z" fill="#FACFC9"/>
<path d="M147.941 308.333C148.56 304.814 148.378 301.728 147.879 299.202L139.944 303.975L147.941 308.333Z" fill="#174859"/>
<path d="M265.678 313.385C265.678 313.385 272.034 302.262 265.164 289.223L253.47 289.472C260.34 302.511 253.984 313.634 253.984 313.634L265.678 313.385Z" fill="#174859"/>
<path d="M233.01 238.634C257.708 238.634 277.729 232.339 277.729 224.573C277.729 216.807 257.708 210.512 233.01 210.512C208.312 210.512 188.291 216.807 188.291 224.573C188.291 232.339 208.312 238.634 233.01 238.634Z" fill="#0F2F3B"/>
<path d="M233.01 212.072C257.708 212.072 277.729 206.757 277.729 200.2C277.729 193.643 257.708 188.328 233.01 188.328C208.312 188.328 188.291 193.643 188.291 200.2C188.291 206.757 208.312 212.072 233.01 212.072Z" fill="#DFECF0"/>
<path d="M277.73 200.2H188.291V224.573H277.73V200.2Z" fill="#0F2F3B"/>
<path d="M236.572 177.246C236.572 177.246 149.508 199.408 150.299 199.408C151.091 199.408 229.449 226.319 233.406 227.11C237.363 227.902 311.764 204.157 314.93 202.574C318.096 200.991 239.738 176.455 236.572 177.246Z" fill="#143E4D"/>
<path d="M314.93 202.574V200.2L150.299 197.034V199.408L314.93 202.574Z" fill="#143E4D"/>
<path d="M236.572 174.872C236.572 174.872 149.508 197.034 150.299 197.034C151.091 197.034 229.449 223.945 233.406 224.736C237.363 225.527 311.764 201.783 314.93 200.2C318.096 198.617 239.738 174.08 236.572 174.872Z" fill="#174859"/>
<path d="M232.658 197.382V200.857L152.824 200.199C152.824 200.199 150.581 200.541 149.741 203.689C148.901 206.838 150.298 221.569 150.298 221.569C150.298 221.569 147.825 224.648 146.375 220.376C144.925 216.104 146.375 200.198 146.375 200.198C146.375 200.198 147.292 196.985 151.463 197.381C155.634 197.777 232.658 197.382 232.658 197.382Z" fill="#0F2F3B"/>
<path d="M146.287 222.644C146.287 222.644 142.694 225.473 144.463 229.611C146.231 233.748 146.231 233.748 146.231 233.748L146.287 232.49L148.428 234.636L149.126 232.49L150.067 235.307C150.067 235.307 156.401 228.384 149.737 222.074C149.737 222.074 147.641 221.079 146.287 222.644Z" fill="#0F2F3B"/>
<path d="M240.478 198.931C240.478 199.979 237.896 200.828 234.712 200.828C231.527 200.828 228.946 199.979 228.946 198.931C228.946 197.883 231.528 197.034 234.712 197.034C237.896 197.034 240.478 197.883 240.478 198.931Z" fill="#F4C43E"/>
<path d="M150.353 222.073C150.353 223.349 149.318 224.384 148.042 224.384C146.766 224.384 145.731 223.349 145.731 222.073C145.731 220.797 146.766 219.762 148.042 219.762C149.318 219.762 150.353 220.797 150.353 222.073Z" fill="#F4C43E"/>
<path d="M223.822 97.4399C223.822 97.4399 224.075 99.4899 221.489 102.107C218.902 104.724 217.93 114.816 230.222 111.124C242.514 107.433 232.909 94.1839 223.822 97.4399Z" fill="#CF2949"/>
<path d="M224.234 111.396C224.234 111.396 229.609 109.243 234.293 110.126C234.293 110.126 236.308 116.479 233.222 118.642C230.136 120.806 222.878 118.026 224.234 111.396Z" fill="#66A1ED"/>
<path d="M188.434 50.9519L179.579 53.1089C178.762 53.3079 177.931 52.8019 177.732 51.9849C177.533 51.1679 178.039 50.3369 178.856 50.1379L187.711 47.9809C188.528 47.7819 189.359 48.2879 189.558 49.1049C189.756 49.9219 189.251 50.7529 188.434 50.9519Z" fill="#AAB9D8"/>
<path d="M190.432 18.5989C188.538 10.8249 180.562 6.12893 172.795 8.33693C165.642 10.3699 161.248 17.7439 162.857 25.0039C163.707 28.8399 166.029 31.9509 169.087 33.8929C170.7 34.9169 171.877 36.4999 172.329 38.3569L172.74 40.0459C173.496 43.1489 176.624 45.0509 179.726 44.2949L184.247 43.1939C187.35 42.4379 189.252 39.3099 188.496 36.2079L188.084 34.5189C187.633 32.6689 187.941 30.7249 188.901 29.0809C190.686 26.0259 191.335 22.3059 190.432 18.5989Z" fill="#FFD96E"/>
<path d="M188.048 13.514C188.529 14.419 188.908 15.396 189.162 16.438C189.96 19.714 189.387 23.002 187.811 25.701C186.963 27.154 186.691 28.873 187.089 30.508L187.453 32.001C188.121 34.743 186.439 37.508 183.697 38.176L179.701 39.149C176.959 39.817 174.194 38.136 173.526 35.393L173.162 33.9C172.762 32.259 171.722 30.86 170.296 29.955C167.593 28.238 165.54 25.489 164.789 22.098C163.878 17.983 165.15 13.829 167.846 10.902C163.77 14.188 161.666 19.625 162.857 25.002C163.707 28.838 166.029 31.949 169.087 33.891C170.7 34.915 171.877 36.498 172.329 38.355L172.74 40.044C173.496 43.147 176.624 45.049 179.726 44.293L184.247 43.192C187.35 42.436 189.252 39.308 188.496 36.206L188.084 34.517C187.633 32.667 187.941 30.723 188.901 29.079C190.684 26.026 191.333 22.305 190.43 18.599C189.97 16.702 189.143 14.989 188.048 13.514Z" fill="#F4C43E"/>
<path d="M178.472 43.2609L174.413 26.5989C174.413 26.5989 175.344 28.4129 176.621 27.2319C177.898 26.0519 174.645 23.0669 175.135 25.3449C175.625 27.6229 179.624 28.3199 179.901 25.4419C180.178 22.5639 176.191 23.0579 178.512 25.7619C180.833 28.4659 181.748 24.8119 181.748 24.8119L185.807 41.4739" stroke="#FFF8E6" stroke-width="0.5581" stroke-miterlimit="10" stroke-linejoin="round"/>
<path d="M188.067 44.672L177.016 47.364C175.996 47.612 174.959 46.981 174.71 45.962C174.462 44.942 175.093 43.905 176.112 43.656L187.163 40.964C188.183 40.716 189.22 41.347 189.469 42.366C189.718 43.386 189.087 44.423 188.067 44.672Z" fill="#E0EFF2"/>
<path d="M188.433 46.1749L177.382 48.8669C176.362 49.1149 175.325 48.4839 175.077 47.4649C174.829 46.4449 175.46 45.4079 176.479 45.1589L187.53 42.4669C188.55 42.2189 189.587 42.8499 189.835 43.8689C190.084 44.8889 189.453 45.9259 188.433 46.1749Z" fill="#E0EFF2"/>
<path d="M188.799 47.678L177.748 50.37C176.728 50.618 175.691 49.987 175.442 48.968C175.194 47.948 175.825 46.911 176.844 46.662L187.895 43.97C188.915 43.722 189.952 44.353 190.2 45.372C190.45 46.392 189.819 47.43 188.799 47.678Z" fill="#E0EFF2"/>
<path d="M189.166 49.1819L178.115 51.8739C177.095 52.1219 176.058 51.4909 175.809 50.4719C175.561 49.4519 176.192 48.4149 177.211 48.1659L188.262 45.4739C189.282 45.2259 190.319 45.8569 190.568 46.8759C190.816 47.8959 190.185 48.9329 189.166 49.1819Z" fill="#E0EFF2"/>
<path d="M188.128 43.027L176.206 45.931C175.106 46.199 173.987 45.518 173.719 44.418C173.451 43.318 174.132 42.199 175.232 41.931L187.154 39.027C188.254 38.759 189.373 39.44 189.641 40.54C189.909 41.64 189.228 42.759 188.128 43.027Z" fill="#AAB9D8"/>
<path d="M180.925 16.1009C179.618 16.4189 178.288 15.6099 177.97 14.3039L177.671 13.0779C177.353 11.7709 178.162 10.4409 179.468 10.1229C180.775 9.80495 182.105 10.6129 182.423 11.9199L182.722 13.1459C183.04 14.4529 182.231 15.7829 180.925 16.1009Z" fill="#FFE69E"/>
<path d="M182.631 20.6049C181.64 20.8459 180.632 20.2329 180.391 19.2429C180.15 18.2519 180.763 17.2439 181.754 17.0029C182.745 16.7619 183.753 17.3749 183.994 18.3659C184.234 19.3549 183.621 20.3629 182.631 20.6049Z" fill="#FFE69E"/>
<path d="M189.593 49.3619L183.873 50.7549C183.056 50.9539 182.225 50.4479 182.026 49.6309C182.021 49.6109 182.022 49.5909 182.018 49.5709C181.137 49.5979 180.32 49.0049 180.104 48.1159C180.039 47.8489 180.036 47.5799 180.083 47.3249C179.924 47.1199 179.803 46.8799 179.738 46.6129C179.673 46.3459 179.67 46.0769 179.717 45.8219C179.558 45.6169 179.437 45.3769 179.372 45.1099C179.307 44.8419 179.304 44.5739 179.351 44.3189C179.192 44.1139 179.071 43.8739 179.006 43.6069C178.985 43.5189 178.972 43.4309 178.963 43.3429C178.504 43.0699 178.149 42.6209 178.014 42.0639C177.855 41.4109 178.032 40.7519 178.431 40.2679C178.156 39.9739 177.907 39.6519 177.696 39.2999C177.403 38.8119 177.178 38.2729 177.036 37.6909L176.625 36.0019C176.568 35.7699 176.501 35.5419 176.422 35.3189C175.95 33.9809 175.091 32.8169 173.966 31.9479C173.779 31.8029 173.584 31.6659 173.382 31.5379C172.426 30.9309 171.542 30.2099 170.753 29.3879C170.437 29.0589 170.136 28.7149 169.852 28.3549C169.284 27.6349 168.782 26.8539 168.357 26.0189C168.145 25.6019 167.952 25.1709 167.78 24.7269C167.522 24.0619 167.311 23.3679 167.151 22.6489C167.085 22.3499 167.032 22.0499 166.986 21.7509C166.974 21.6749 166.963 21.5989 166.953 21.5229C166.914 21.2389 166.881 20.9549 166.86 20.6709C166.859 20.6559 166.857 20.6399 166.856 20.6249C166.835 20.3259 166.826 20.0279 166.823 19.7299C166.822 19.6589 166.823 19.5879 166.823 19.5169C166.825 19.2389 166.834 18.9629 166.852 18.6879C166.853 18.6669 166.854 18.6459 166.855 18.6259C166.876 18.3279 166.909 18.0319 166.949 17.7379C166.957 17.6769 166.967 17.6159 166.976 17.5549C167.017 17.2789 167.065 17.0049 167.122 16.7329C167.126 16.7139 167.129 16.6959 167.133 16.6769C167.196 16.3819 167.271 16.0889 167.353 15.7989C167.366 15.7529 167.38 15.7069 167.394 15.6599C167.475 15.3829 167.563 15.1089 167.661 14.8379C167.665 14.8269 167.669 14.8149 167.673 14.8039C167.779 14.5129 167.895 14.2269 168.019 13.9439C168.032 13.9149 168.045 13.8859 168.058 13.8569C168.181 13.5809 168.312 13.3089 168.452 13.0419C168.454 13.0379 168.456 13.0349 168.458 13.0309C168.606 12.7499 168.763 12.4739 168.929 12.2039C168.937 12.1919 168.944 12.1799 168.952 12.1679C169.803 10.7889 170.888 9.55588 172.163 8.53088C168.952 9.60988 166.347 11.7839 164.658 14.5219C164.651 14.5339 164.643 14.5459 164.635 14.5579C164.469 14.8289 164.312 15.1039 164.164 15.3859C164.162 15.3899 164.16 15.3929 164.158 15.3969C164.018 15.6639 163.887 15.9359 163.764 16.2119C163.751 16.2409 163.738 16.2699 163.725 16.2989C163.601 16.5819 163.485 16.8679 163.379 17.1589C163.375 17.1699 163.371 17.1819 163.367 17.1929C163.269 17.4639 163.181 17.7379 163.1 18.0149C163.086 18.0609 163.072 18.1069 163.059 18.1539C162.977 18.4439 162.903 18.7359 162.839 19.0319C162.835 19.0509 162.832 19.0689 162.828 19.0879C162.771 19.3599 162.723 19.6339 162.682 19.9099C162.673 19.9709 162.664 20.0319 162.655 20.0929C162.615 20.3869 162.582 20.6829 162.56 20.9809C162.559 21.0019 162.558 21.0219 162.557 21.0429C162.539 21.3179 162.53 21.5949 162.528 21.8729C162.528 21.9439 162.527 22.0149 162.528 22.0859C162.53 22.3829 162.539 22.6809 162.561 22.9809C162.562 22.9959 162.564 23.0109 162.565 23.0269C162.586 23.3109 162.619 23.5949 162.658 23.8789C162.669 23.9549 162.679 24.0309 162.691 24.1069C162.737 24.4059 162.79 24.7059 162.856 25.0049C163.015 25.7239 163.226 26.4179 163.484 27.0829C163.656 27.5269 163.849 27.9579 164.061 28.3749C164.485 29.2099 164.988 29.9909 165.556 30.7109C165.84 31.0709 166.141 31.4159 166.457 31.7439C167.247 32.5659 168.13 33.2869 169.086 33.8939C169.288 34.0219 169.482 34.1589 169.67 34.3039C170.795 35.1739 171.654 36.3379 172.126 37.6749C172.205 37.8979 172.272 38.1259 172.329 38.3579L172.74 40.0469C172.882 40.6289 173.107 41.1679 173.4 41.6559C173.611 42.0079 173.86 42.3299 174.135 42.6239C173.736 43.1089 173.559 43.7669 173.718 44.4199C173.854 44.9769 174.208 45.4259 174.667 45.6989C174.676 45.7869 174.688 45.8739 174.71 45.9619C174.775 46.2289 174.896 46.4689 175.055 46.6739C175.008 46.9289 175.011 47.1979 175.076 47.4649C175.141 47.7329 175.262 47.9719 175.421 48.1769C175.374 48.4319 175.377 48.7009 175.442 48.9679C175.507 49.2349 175.628 49.4749 175.787 49.6799C175.74 49.9349 175.743 50.2039 175.808 50.4709C176.025 51.3599 176.841 51.9529 177.722 51.9259C177.726 51.9459 177.725 51.9659 177.73 51.9859C177.929 52.8029 178.76 53.3089 179.577 53.1099L188.432 50.9529C189.165 50.7739 189.643 50.0889 189.593 49.3619Z" fill="#E0EFF2"/>
<path d="M228.551 178.829C228.551 178.829 225.002 183.908 225.884 184.792C226.767 185.676 230.567 182.74 231.648 181.303C232.728 179.866 231.502 177.838 231.502 177.838L228.551 178.829Z" fill="#FF5D7B"/>
<path d="M226.472 151.863C226.472 151.863 227.444 164.644 227.861 166.201C228.278 167.758 228.139 178.314 228.694 179.564C229.25 180.814 231.75 178.869 231.75 178.036C231.75 177.203 233.278 170.146 233.417 168.396C233.556 166.646 235.5 156.646 235.639 153.868C235.778 151.091 229.667 147.217 226.472 151.863Z" fill="#FACFC9"/>
<path d="M254.815 167.704C254.815 167.704 257.466 173.305 258.671 172.976C259.876 172.648 259.211 167.892 258.499 166.241C257.787 164.59 255.418 164.65 255.418 164.65L254.815 167.704Z" fill="#FF5D7B"/>
<path d="M245.092 146.438C245.043 151.03 245.06 153.983 246.556 158.217C247.259 160.207 255.103 163.99 256.623 165.788C258.143 167.586 256.428 168.387 254.188 167.933C251.948 167.479 245.039 164.091 242.551 162.334C240.558 160.927 236.852 155.254 236.906 150.403C236.96 145.552 241.603 143.865 245.092 146.438Z" fill="#FACFC9"/>
<path d="M224.365 111.915C224.365 111.915 215.034 109.941 213.816 108.398C212.598 106.854 207.083 99.6469 205.308 99.7739C203.533 99.9019 203.017 100.881 203.038 102.053C203.058 103.226 210.459 112.204 211.195 112.966C211.931 113.728 221.785 119.928 223.143 119.495C224.5 119.063 226.386 112.377 224.365 111.915Z" fill="#174859"/>
<path d="M250.136 133.831C250.136 133.831 249.165 137.047 250.281 137.623C251.397 138.199 251.963 137.559 251.963 137.559C251.963 137.559 253.804 139.171 254.47 137.738C255.136 136.305 254.342 133.142 251.775 132.621C251.775 132.621 250.414 132.615 250.136 133.831Z" fill="#FACFC9"/>
<path d="M234.493 118.275C234.493 118.275 243.194 122.182 244.057 123.949C244.92 125.716 248.782 133.928 250.543 134.18C252.304 134.432 253.016 133.584 253.245 132.434C253.474 131.284 248.144 120.941 247.587 120.04C247.03 119.139 238.713 110.992 237.295 111.127C235.877 111.261 232.615 117.395 234.493 118.275Z" fill="#174859"/>
<path d="M221.489 113.677C221.489 113.677 222.089 125.823 224.067 128.184C224.067 128.184 224.848 129.937 224.864 134.494C224.879 139.05 222.488 146.723 225.148 154.482C225.148 154.482 248.026 156.246 248.121 148.121C248.182 142.903 244.693 136.078 241.572 132.288C238.898 129.041 240.271 127.869 239.396 123.881C239.391 123.859 239.387 123.838 239.382 123.817C238.929 121.709 238.546 112.762 237.841 111.613C237.136 110.464 234.293 110.126 234.293 110.126C234.293 110.126 232.193 116.782 230.081 116.68C227.968 116.578 224.234 111.396 224.234 111.396C224.234 111.396 222.006 111.859 221.489 113.677Z" fill="#174859"/>
<path d="M204.921 99.9989C204.921 99.9989 206.183 96.3319 204.921 95.6199C203.659 94.9069 202.978 95.6199 202.978 95.6199C202.978 95.6199 200.926 93.6799 200.095 95.3029C199.263 96.9269 200.041 100.609 202.978 101.322C202.978 101.322 204.548 101.389 204.921 99.9989Z" fill="#FACFC9"/>
<path d="M228.177 111.202V109.239C228.177 109.239 224.015 109.076 223.771 106.064C223.527 103.052 223.771 104.543 223.771 104.543C223.771 104.543 222.306 104.024 222.306 103.51C222.306 102.996 224.127 101.449 224.127 101.449C224.127 101.449 225.074 95.4 229.795 95.155C234.517 94.911 236.47 98.9 236.308 102.156C236.145 105.412 233.784 108.424 232.808 108.587C231.832 108.75 232.482 111.202 232.482 111.202C232.482 111.202 229.563 113.391 228.177 111.202Z" fill="#FACFC9"/>
<path d="M228.984 92.7129C228.984 92.7129 221.856 93.9629 223.557 97.0299C225.258 100.098 230.228 100.325 230.228 100.325C230.228 100.325 230.374 103.165 232.134 103.961C232.134 103.961 233.721 108.165 230.228 112.596C226.736 117.027 237.34 118.845 239.309 108.733C241.278 98.6209 237.642 95.0769 234.461 94.3489C231.28 93.6219 230.598 94.3489 230.598 94.3489C230.598 94.3489 229.932 92.5029 228.984 92.7129Z" fill="#FF5D7B"/>
<path d="M182.331 52.439C182.331 52.439 185.243 89.349 202.376 97.309C219.508 105.268 222.579 117.226 212.299 122.765" stroke="#174859" stroke-width="0.816" stroke-miterlimit="10"/>
<path d="M172.668 171.327C171.974 171.998 171.556 172.902 171.413 173.856C170.956 176.897 169.622 185.344 168.889 185.474C167.995 185.633 157.61 190.24 157.61 190.516C157.61 190.791 157.863 193.267 161.725 192.442C165.588 191.617 172.652 188.797 173.177 188.109C173.703 187.421 175.896 176.83 175.521 174.629C175.204 172.759 174.523 169.534 172.668 171.327Z" fill="#CC3853"/>
<path d="M155.61 210.339C155.61 210.339 154.938 213.917 154.235 214.45C153.532 214.982 151.704 214.35 151.633 213.014C151.563 211.678 152.969 207.6 152.969 207.6C152.969 207.6 155.016 207.595 155.61 210.339Z" fill="#FACFC9"/>
<path d="M175.487 190.926C175.487 190.926 157.015 189.962 155.422 192.397C153.828 194.832 154.016 197.396 161.141 197.177C168.266 196.959 176.042 198.156 176.982 195.603C177.922 193.051 175.487 190.926 175.487 190.926Z" fill="#5384C2"/>
<path d="M156.728 192.22C156.728 192.22 155.502 191.788 154.685 194.504C153.868 197.22 150.908 210.207 151.165 210.488C151.422 210.769 154.628 212.363 156.728 212.082C156.728 212.082 159.485 199.994 159.953 197.929C160.423 195.863 159.503 191.858 156.728 192.22Z" fill="#5384C2"/>
<path d="M155.09 213.314C155.09 213.314 155.277 215.448 153.44 217.308C151.603 219.168 142.912 213.709 142.559 210.913C142.206 208.117 151.382 211.348 151.382 211.348C151.382 211.348 152.553 213.335 155.09 213.314Z" fill="#FF5D7B"/>
<path d="M148.822 212.371C145.65 209.763 143.182 209.99 142.992 210.027C142.673 210.206 142.506 210.49 142.559 210.913C142.887 213.508 150.391 218.393 152.939 217.596C154.273 216.511 152.004 214.986 148.822 212.371Z" fill="#E03D5B"/>
<path d="M179.254 168.272C182.848 167.285 186.475 169.794 186.85 173.502C187.532 180.259 187.962 191.676 183.715 195.452C177.541 200.941 169.958 199.188 169.958 199.188C169.958 199.188 172.795 175.812 172.655 172.217C172.613 171.168 174.904 169.466 179.254 168.272Z" fill="#FF5D7B"/>
<path d="M164.1 214.082C164.1 214.082 163.428 217.66 162.725 218.192C162.022 218.725 160.194 218.092 160.124 216.756C160.054 215.42 161.46 211.342 161.46 211.342C161.46 211.342 163.506 211.337 164.1 214.082Z" fill="#FACFC9"/>
<path d="M183.93 194.541C183.93 194.541 184.513 201.545 177.088 201.264C169.663 200.983 163.288 201.394 163.288 199.923C163.288 198.452 161.799 194.953 169.669 193.984C177.538 193.014 183.93 194.541 183.93 194.541Z" fill="#66A1ED"/>
<path d="M165.219 195.183C165.219 195.183 163.993 194.751 163.176 197.466C162.359 200.182 159.399 213.169 159.656 213.451C159.913 213.732 163.119 215.326 165.219 215.045C165.219 215.045 167.976 202.957 168.444 200.892C168.913 198.826 167.993 194.821 165.219 195.183Z" fill="#66A1ED"/>
<path d="M163.7 217.185C163.7 217.185 163.887 219.319 162.05 221.179C160.213 223.04 151.522 217.58 151.169 214.784C150.816 211.988 159.992 215.219 159.992 215.219C159.992 215.219 161.163 217.205 163.7 217.185Z" fill="#FF5D7B"/>
<path d="M157.432 216.241C154.26 213.634 151.792 213.861 151.602 213.897C151.283 214.076 151.116 214.36 151.169 214.783C151.497 217.378 159.001 222.263 161.549 221.466C162.883 220.382 160.614 218.857 157.432 216.241Z" fill="#E03D5B"/>
<path d="M176.611 170.556L175.7 168.315C175.7 168.315 170.874 170.061 169.197 166.736C167.52 163.412 167.461 161.304 167.461 161.304C167.461 161.304 165.734 153.96 171.009 151.49C176.284 149.02 180.366 152.666 181.691 156.458C183.016 160.25 181.72 164.784 180.681 165.423C179.642 166.062 181.523 168.558 181.523 168.558C181.523 168.558 179.208 172.411 176.611 170.556Z" fill="#FACFC9"/>
<path d="M175.768 155.579C175.768 155.579 169.716 159.224 166.139 157.917C162.563 156.61 162.907 152.759 164.557 151.727C166.208 150.695 166.758 151.727 166.758 151.727C166.758 151.727 168.711 150.274 169.234 151.269C169.234 151.269 174.736 149.183 175.768 149.664C176.8 150.145 176.8 150.145 176.8 150.145C176.8 150.145 175.493 148.976 176.112 148.838C176.731 148.7 177.556 149.663 177.556 149.663C177.556 149.663 179.894 149.525 179.688 150.007C179.482 150.488 178.62 150.683 178.62 150.683C178.62 150.683 181.864 152.208 182.255 157.16C182.645 162.112 182.255 163.075 182.255 163.075C182.255 163.075 182.126 167.77 180.391 166.282C178.656 164.794 180.513 162.593 180.513 162.112C180.513 161.631 181.201 159.43 180.307 158.605C179.413 157.78 178.62 159.293 178.62 159.293C178.62 159.293 179.412 161.494 179.069 161.7C178.725 161.906 177.693 161.559 177.556 160.873C177.418 160.187 177.35 158.743 177.212 158.468C177.074 158.193 175.836 157.643 175.699 157.299C175.561 156.954 175.768 155.579 175.768 155.579Z" fill="#174859"/>
<path d="M169.964 196.087L181.01 192.61L168.849 189.485L154.68 192.261L169.964 196.087Z" fill="#AAB9D8"/>
<path d="M183.333 171.061C183.333 171.061 181.545 183.597 180.651 183.755C179.757 183.914 169.372 188.522 169.372 188.797C169.372 189.072 169.625 191.548 173.487 190.723C177.349 189.898 184.414 187.078 184.939 186.39C185.465 185.702 187.658 175.111 187.283 172.91C186.909 170.71 183.518 169.807 183.333 171.061Z" fill="#E03D5B"/>
<path d="M169.957 188.935C169.957 188.935 166.491 188.783 165.902 190.062C165.314 191.342 166.173 192.659 167.929 192.61C169.685 192.561 171.984 190.998 171.778 190.448C171.572 189.898 170.542 189.072 169.957 188.935Z" fill="#FACFC9"/>
<path d="M152.165 178.962L168.902 182.62L169.964 196.087L154.68 192.261L152.165 178.962Z" fill="#E0EFF2"/>
<path d="M41.35 246.058L39.237 247.899C39.237 247.899 36.135 247.977 35.05 248.287C33.965 248.597 31.948 249.76 32.259 250.148C32.259 250.148 30.786 251.699 31.174 252.009C31.174 252.009 31.407 253.094 31.949 253.094C31.949 253.094 32.414 253.869 33.422 253.714C33.422 253.714 35.005 252.551 36.229 252.551C37.454 252.551 38.152 252.629 38.152 252.629C38.152 252.629 36.369 252.98 35.826 253.735C35.283 254.49 35.283 254.955 35.593 255.11C35.903 255.265 37.221 254.179 38.307 254.179C39.393 254.179 41.37 252.861 41.35 251.698C41.331 250.535 43.734 248.829 44.355 247.899C44.975 246.969 42.478 245.074 41.35 246.058Z" fill="#FACFC9"/>
<path d="M79.781 238.764C79.781 238.764 82.135 246.801 83.476 247.176C84.817 247.551 88.851 236.927 88.851 236.927C88.851 236.927 89.745 235.557 93.023 236.927C96.301 238.297 86.158 254.934 84.668 254.967C83.178 255 75.121 251.101 75.728 248.125C76.336 245.15 77.713 238.784 79.781 238.764Z" fill="#E8A423"/>
<path d="M66.924 303.892C66.924 303.892 66.465 307.003 67.244 308.136C68.023 309.269 69.112 308.68 69.467 307.523C69.822 306.366 69.787 303.102 69.787 303.102C69.787 303.102 67.791 302.497 66.924 303.892Z" fill="#FACFC9"/>
<path d="M70.155 306.664C70.633 306.479 71.153 306.438 71.635 306.615C73.185 307.183 76.114 308.231 77.229 308.454C78.776 308.763 81.375 309.939 81.498 311.424C81.622 312.909 71.607 312.228 70.087 312.167C68.567 312.105 66.216 312.353 66.092 311.363C66.009 310.697 66.037 308.574 66.065 307.256C66.076 306.715 66.589 306.33 67.114 306.465C68.05 306.704 69.402 306.956 70.155 306.664Z" fill="#5384C2"/>
<path d="M47.098 303.102C47.098 303.102 45.828 305.979 46.277 307.279C46.727 308.578 47.933 308.3 48.583 307.279C49.233 306.258 50.068 303.102 50.068 303.102C50.068 303.102 48.304 301.988 47.098 303.102Z" fill="#FACFC9"/>
<path d="M48.767 306.346C49.245 306.161 49.766 306.12 50.247 306.297C51.797 306.865 54.726 307.913 55.841 308.136C57.388 308.445 59.987 309.621 60.11 311.106C60.234 312.591 50.219 311.91 48.699 311.848C47.179 311.786 44.828 312.034 44.704 311.044C44.621 310.378 44.65 308.255 44.677 306.937C44.688 306.396 45.201 306.011 45.726 306.146C46.662 306.386 48.015 306.638 48.767 306.346Z" fill="#5384C2"/>
<path d="M53.296 256.982C53.296 256.982 54.186 262.675 56.539 264.834C56.539 264.834 70.137 279.794 70.841 282.681C71.546 285.568 66.431 304.482 66.379 304.683C66.326 304.884 70.132 305.089 70.525 303.299C70.919 301.508 77.127 282.035 76.693 280.609C76.259 279.183 65.012 262.285 65.012 262.285C65.012 262.285 65.566 256.8 64.488 255.217C63.41 253.635 53.296 256.982 53.296 256.982Z" fill="#E03D5B"/>
<path d="M64.963 255.774C64.963 255.774 53.385 256.419 53.296 258.179L55.689 287.66L46.277 303.778C46.277 303.778 47.747 305.537 49.975 304.685C52.221 301.777 61.547 290.184 62.355 287.91C63.163 285.636 61.217 265.573 61.217 265.573C61.217 265.573 65.019 263.275 65.087 261.33C65.154 259.386 64.963 255.774 64.963 255.774Z" fill="#FF5D7B"/>
<path d="M73.954 233.228C73.954 233.228 65.55 230.779 64.348 232.656C63.146 234.532 54.646 256.01 55.909 258.223C57.172 260.436 63.666 264.228 65.276 263.033C66.886 261.838 79.176 242.907 79.86 241.151C80.544 239.395 78.927 236.244 77.393 235.314C75.859 234.383 73.954 233.228 73.954 233.228Z" fill="#ABB5F3"/>
<path d="M67.398 248.285C67.398 248.285 62.869 260.517 60.467 262.751C60.467 262.751 55.614 263.281 52.647 257.632C52.647 257.632 57.914 245.358 58.559 243.578C59.204 241.798 63.358 232.595 63.358 232.595C63.358 232.595 64.156 229.529 73.955 233.228L67.398 248.285Z" fill="#F4B031"/>
<path d="M68.5459 251.071C68.5459 251.071 65.1529 262.467 65.2749 263.032C65.3969 263.597 65.9919 264.681 67.1879 265.573C68.3839 266.465 75.7269 248.125 75.7269 248.125C75.7269 248.125 80.5829 242.043 80.2489 240.664C79.9159 239.285 80.0869 236.946 80.0869 236.946C80.0869 236.946 77.6529 236.486 75.6899 239.962C73.7279 243.44 68.5459 251.071 68.5459 251.071Z" fill="#F4B031"/>
<path d="M77.821 236.768L78.767 234.442C78.767 234.442 83.776 236.254 85.516 232.804C87.256 229.354 87.318 227.166 87.318 227.166C87.318 227.166 89.111 219.544 83.635 216.98C78.16 214.416 73.924 218.2 72.548 222.136C71.172 226.072 72.518 230.777 73.597 231.44C74.676 232.103 72.723 234.694 72.723 234.694C72.723 234.694 75.126 238.694 77.821 236.768Z" fill="#FACFC9"/>
<path d="M78.696 221.224C78.696 221.224 84.977 225.007 88.689 223.651C92.401 222.295 92.044 218.297 90.331 217.227C88.618 216.156 88.047 217.227 88.047 217.227C88.047 217.227 86.02 215.719 85.477 216.751C85.477 216.751 79.767 214.586 78.696 215.085C77.625 215.585 77.625 215.585 77.625 215.585C77.625 215.585 78.981 214.371 78.339 214.229C77.697 214.086 76.84 215.086 76.84 215.086C76.84 215.086 74.413 214.943 74.627 215.443C74.841 215.943 75.735 216.145 75.735 216.145C75.735 216.145 72.368 217.728 71.963 222.867C71.558 228.006 71.963 229.006 71.963 229.006C71.963 229.006 72.097 233.879 73.898 232.335C75.698 230.791 73.771 228.506 73.771 228.007C73.771 227.507 73.057 225.223 73.985 224.367C74.913 223.51 75.735 225.081 75.735 225.081C75.735 225.081 74.913 227.365 75.27 227.579C75.627 227.793 76.698 227.432 76.84 226.72C76.983 226.008 77.054 224.509 77.197 224.224C77.34 223.939 78.625 223.367 78.767 223.011C78.911 222.652 78.696 221.224 78.696 221.224Z" fill="#174859"/>
<path d="M74.53 232.277C74.53 232.277 70.562 232.049 70.402 232.383C70.242 232.717 71.418 234.8 71.418 234.8C71.418 234.8 66.77 241.329 67.023 244.662C67.276 247.995 66.98 249.841 66.98 249.841C66.98 249.841 74.853 233.485 74.53 232.277Z" fill="#E8A423"/>
<path d="M78.334 234.649C78.334 234.649 80.848 237.727 80.671 238.053C80.495 238.379 78.118 238.649 78.118 238.649C78.118 238.649 75.561 246.245 72.714 247.996C69.867 249.747 68.546 251.071 68.546 251.071C68.546 251.071 77.166 235.097 78.334 234.649Z" fill="#E8A423"/>
<path d="M64.3259 231.977C64.3259 231.977 51.2689 234.764 50.0399 235.7C48.8109 236.636 39.424 245.687 39.424 245.687C39.424 245.687 40.5409 249.966 43.7819 249.223C47.0219 248.48 50.5819 241.329 51.8749 241.329C53.1679 241.329 63.8959 238.2 65.4599 237.641C67.0239 237.083 66.5279 231.495 64.3259 231.977Z" fill="#F4C43E"/>
<path d="M90.1529 238.537L90.6969 236.573C90.6969 236.573 89.3719 235.245 89.3719 234.748C89.3719 234.251 90.0339 231.684 90.6969 231.684C91.3589 231.684 94.4229 229.945 95.0029 231.27C95.5829 232.595 95.0029 232.595 95.0029 232.595C95.0029 232.595 96.0149 233.837 95.2609 234.748C95.2609 234.748 95.1689 236.08 94.9199 236.573C94.6719 237.066 93.1809 237.398 93.1809 237.398L92.6569 239.117C92.6569 239.117 90.6089 240.69 90.1529 238.537Z" fill="#FACFC9"/>
<path d="M92.456 232.636C92.103 232.636 91.814 232.347 91.814 231.993V226.831C91.814 226.478 92.103 226.189 92.456 226.189C92.809 226.189 93.099 226.478 93.099 226.831V231.993C93.099 232.347 92.81 232.636 92.456 232.636Z" fill="#174859"/>
<path d="M92.456 229.904C94.3537 229.904 95.892 228.366 95.892 226.468C95.892 224.57 94.3537 223.032 92.456 223.032C90.5584 223.032 89.02 224.57 89.02 226.468C89.02 228.366 90.5584 229.904 92.456 229.904Z" fill="#174859"/>
<path d="M92.456 228.898C93.7981 228.898 94.886 227.81 94.886 226.468C94.886 225.126 93.7981 224.038 92.456 224.038C91.1139 224.038 90.026 225.126 90.026 226.468C90.026 227.81 91.1139 228.898 92.456 228.898Z" fill="#C6E6FD"/>
<path d="M321.838 239.928C321.838 239.928 324.107 248.894 326.396 250.351C328.685 251.808 336.575 246.576 336.575 246.576C336.575 246.576 336.956 243.844 337.684 243.48C338.413 243.116 339.596 244.209 339.596 244.209C339.596 244.209 343.694 241.113 344.787 241.022C345.88 240.931 342.647 244.027 342.647 244.027C342.647 244.027 342.783 246.985 341.69 247.782C340.597 248.58 337.865 249.035 337.865 249.035C337.865 249.035 331.113 256.002 326.299 255.729C321.485 255.456 315.098 243.663 315.098 243.663C315.098 243.663 318.378 238.653 321.838 239.928Z" fill="#E0A880"/>
<path d="M333.368 291.327L334.802 294.464L338.745 293.478L335.519 288.997C335.519 288.997 331.934 288.19 333.368 291.327Z" fill="#F8C29C"/>
<path d="M313.057 258.579C313.057 258.579 324.851 261.529 329.05 267.78C333.248 274.031 338.342 289.684 338.342 289.684L332.366 292.91L321.969 274.003L308.25 266.359C308.25 266.359 308.956 257.26 313.057 258.579Z" fill="#E8A423"/>
<path d="M336.001 245.682L335.141 249.632L343.603 244.321L344.289 240.442L336.001 245.682Z" fill="white"/>
<path d="M313.654 237.633C313.654 237.633 317.224 232.708 320.199 235.071C323.174 237.434 324.166 241.5 324.166 241.5L316.927 246.756C316.927 246.756 312.761 245.764 313.654 237.633Z" fill="#E03D5B"/>
<path d="M318.348 230.563C318.348 230.563 320.393 230.463 320.525 229.036C320.657 227.609 321.433 219.983 329.371 221.414C335.098 222.446 335.14 227.759 335.14 229.081C335.14 230.403 333.156 235.31 333.42 236.427C333.684 237.544 331.304 236.427 331.304 236.427C331.304 236.427 328.888 239.599 328.095 239.815C327.302 240.031 323.295 237.217 323.169 235.806C322.956 233.432 320.657 237.009 319.599 236.672C318.542 236.335 316.7 232.724 318.348 230.563Z" fill="#F8C29C"/>
<path d="M318.348 230.563C318.348 230.563 303.916 231.353 301.14 245.389C298.363 259.425 301.14 267.94 301.14 267.94C301.14 267.94 309.602 268.493 313.569 267.225C317.536 265.957 311.137 255.986 318.674 248.846C324.684 243.152 318.348 230.563 318.348 230.563Z" fill="#FF5D7B"/>
<path d="M319.878 242.698C319.878 242.698 322.147 251.664 324.436 253.121C326.725 254.578 334.614 249.346 334.614 249.346C334.614 249.346 334.994 246.614 335.723 246.25C336.452 245.886 337.635 246.978 337.635 246.978C337.635 246.978 341.733 243.882 342.826 243.791C343.919 243.7 340.686 246.796 340.686 246.796C340.686 246.796 340.822 249.754 339.729 250.552C338.636 251.35 335.904 251.805 335.904 251.805C335.904 251.805 329.152 258.772 324.338 258.499C319.524 258.226 313.137 246.432 313.137 246.432C313.137 246.432 316.417 241.423 319.878 242.698Z" fill="#F8C29C"/>
<path d="M309.966 239.095C309.966 239.095 313.536 234.17 316.511 236.533C319.486 238.897 320.478 242.962 320.478 242.962L313.239 248.218C313.239 248.218 309.073 247.227 309.966 239.095Z" fill="#E03D5B"/>
<path d="M326.993 294.214L328.427 297.351L332.37 296.365L329.144 291.884C329.144 291.884 325.559 291.077 326.993 294.214Z" fill="#F8C29C"/>
<path d="M306.683 261.466C306.683 261.466 318.477 264.416 322.675 270.667C326.873 276.918 331.967 292.571 331.967 292.571L325.991 295.797L315.595 276.89L301.876 269.246C301.876 269.246 300.274 267.28 300.718 265.524C301.335 263.082 304.297 260.699 306.683 261.466Z" fill="#F4C43E"/>
<path d="M327.905 296.783C327.905 296.783 330.593 296.989 332.371 295.908C332.371 295.908 339.459 300.064 340.986 300.646C342.514 301.228 342.368 303.119 340.986 303.192C339.604 303.265 328.499 302.174 327.905 301.519C327.311 300.864 327.043 297.503 327.905 296.783Z" fill="#164454"/>
<path d="M334.143 293.164C334.143 293.164 336.831 293.37 338.609 292.289C338.609 292.289 345.697 296.445 347.224 297.027C348.751 297.609 348.606 299.5 347.224 299.573C345.842 299.646 334.736 298.555 334.143 297.9C333.55 297.246 333.283 293.884 334.143 293.164Z" fill="#164454"/>
<path d="M319.837 230.106C319.837 230.106 318.873 230.92 319.455 227.522C320.037 224.124 322.947 220.269 323.747 220.342C323.747 220.342 322.118 219.573 323.005 219.267C323.892 218.96 324.838 219.511 324.838 219.511C324.838 219.511 326.649 217.823 327.031 218.557C327.413 219.291 326.416 219.821 326.416 219.821C326.416 219.821 329.13 218.521 331.312 220.706C333.494 222.89 336.404 223.688 336.404 223.688C336.404 223.688 338.534 223.326 338.732 225.579C338.93 227.832 336.914 226.886 336.914 226.886C336.914 226.886 339.896 228.694 337.86 230.192C335.823 231.689 335.023 231.131 333.423 230.646C331.823 230.162 331.386 229.229 330.586 229.077C329.786 228.925 328.098 229.08 328.098 229.08C328.098 229.08 327.05 231.835 326.418 231.689C325.786 231.544 325.204 231.409 325.568 230.531C325.932 229.653 326.76 228.416 326.418 227.834C326.076 227.252 323.503 227.305 323.299 229.57C323.095 231.835 321.066 232.857 320.48 232.419C319.891 231.98 319.837 230.106 319.837 230.106Z" fill="#164454"/>
<defs>
<linearGradient id="paint0_linear_243_327" x1="359.013" y1="94.1754" x2="386.695" y2="98.8612" gradientUnits="userSpaceOnUse">
<stop offset="0.191" stop-color="#47A2E9"/>
<stop offset="0.6581" stop-color="#8ABCF7"/>
</linearGradient>
<linearGradient id="paint1_linear_243_327" x1="369.161" y1="161.971" x2="369.162" y2="109.982" gradientUnits="userSpaceOnUse">
<stop offset="0.2435" stop-color="#49687E"/>
<stop offset="1" stop-color="#DFF1FD"/>
</linearGradient>
<linearGradient id="paint2_linear_243_327" x1="361.223" y1="139.437" x2="361.224" y2="96.373" gradientUnits="userSpaceOnUse">
<stop offset="0.2435" stop-color="#49687E"/>
<stop offset="1" stop-color="#DFF1FD"/>
</linearGradient>
<linearGradient id="paint3_linear_243_327" x1="327.859" y1="176.45" x2="379.645" y2="176.45" gradientUnits="userSpaceOnUse">
<stop offset="0.191" stop-color="#47A2E9"/>
<stop offset="0.6581" stop-color="#8ABCF7"/>
</linearGradient>
<linearGradient id="paint4_linear_243_327" x1="367.398" y1="274.596" x2="367.398" y2="182.25" gradientUnits="userSpaceOnUse">
<stop offset="0.2435" stop-color="#49687E"/>
<stop offset="1" stop-color="#DFF1FD"/>
</linearGradient>
<linearGradient id="paint5_linear_243_327" x1="394.967" y1="268.337" x2="394.968" y2="179.898" gradientUnits="userSpaceOnUse">
<stop offset="0.2435" stop-color="#49687E"/>
<stop offset="1" stop-color="#DFF1FD"/>
</linearGradient>
<linearGradient id="paint6_linear_243_327" x1="137.756" y1="254.632" x2="137.758" y2="164.723" gradientUnits="userSpaceOnUse">
<stop offset="0.2435" stop-color="#49687E"/>
<stop offset="1" stop-color="#DFF1FD"/>
</linearGradient>
<linearGradient id="paint7_linear_243_327" x1="69.3432" y1="203.463" x2="69.344" y2="148.092" gradientUnits="userSpaceOnUse">
<stop offset="0.2435" stop-color="#49687E"/>
<stop offset="1" stop-color="#DFF1FD"/>
</linearGradient>
<linearGradient id="paint8_linear_243_327" x1="76.1664" y1="183.695" x2="76.1693" y2="104.287" gradientUnits="userSpaceOnUse">
<stop offset="0.2435" stop-color="#49687E"/>
<stop offset="1" stop-color="#DFF1FD"/>
</linearGradient>
<linearGradient id="paint9_linear_243_327" x1="72.1408" y1="169.389" x2="137.805" y2="169.389" gradientUnits="userSpaceOnUse">
<stop offset="0.191" stop-color="#47A2E9"/>
<stop offset="0.6581" stop-color="#8ABCF7"/>
</linearGradient>
<linearGradient id="paint10_linear_243_327" x1="122.327" y1="267.564" x2="122.324" y2="219.228" gradientUnits="userSpaceOnUse">
<stop offset="0.2435" stop-color="#49687E"/>
<stop offset="1" stop-color="#DFF1FD"/>
</linearGradient>
</defs>
</svg>
